<?xml version="1.0" encoding="utf-8"?>
<!-- Generator: Adobe Illustrator 22.0.1, SVG Export Plug-In . SVG Version: 6.00 Build 0)  -->
<svg version="1.1" id="Layer_1" xmlns="http://www.w3.org/2000/svg" xmlns:xlink="http://www.w3.org/1999/xlink" x="0px" y="0px"
	 width="150px" height="150px" viewBox="0 0 150 150" enable-background="new 0 0 150 150" xml:space="preserve">
<g>
	<path fill="#FFFFFE" d="M110,71.1c0,0,3.7-3.3,0.4-11.2c0,0,6-8.1,0-14.9c0,0,1.4-6.4-6.7-9L84,26.5c0,0-9.7-4.2-18.9,0.1
		l-19.9,9.5c0,0-8.6,3.5-5.8,8.8c0,0-7.5,5.6-0.1,14.9c0,0-5,5.8,0.6,11.8c0,0-7.2,5.4-0.4,14.3l0.4,34.2l0,0
		c-0.3,0.2-0.5,0.3-0.7,0.5c-2.3,0.9-1.6,3.5-1.6,3.5v11c0,0,1.7,12.6,35.8,14.5c0,0,31.4-0.4,38.2-13.9v-11.3
		c0-0.1,0.1-0.2,0.1-0.3c0,0,0-0.1,0-0.1c0-0.1,0-0.2,0.1-0.2c0,0,0-0.1,0-0.1c0-0.1,0-0.2,0.1-0.3c0,0,0,0,0-0.1
		c0-0.2,0.1-0.5,0.1-0.7c0,0,0,0,0-0.1c0-0.1,0-0.2,0-0.3c0,0,0,0,0-0.1c0-0.1,0-0.2-0.1-0.3c0,0,0,0,0,0c0-0.1-0.1-0.2-0.1-0.3
		c0,0,0,0,0,0c0,0,0,0,0,0c-0.2-0.3-0.4-0.5-0.7-0.7c-0.2-0.3-0.6-0.6-1.2-0.8V86.2l-0.3,0C111,84.7,115.6,79.2,110,71.1z"/>
	<path opacity="0.7" fill="#C4D2E8" d="M109.2,71.5c0,0,3.6-3.2,0.4-11c0,0,5.9-7.9,0-14.6c0,0,1.3-6.2-6.5-8.8l-13.8-6.4
		c0,0-7.6-0.5-13.2-0.2c-2.2,0.1-5.7,0.5-9.7,0c-2.7-0.3-3.9-1.5-10.1,1.8l-10.3,4.9c0,0-8.4,3.4-5.7,8.6c0,0-7.3,5.5-0.1,14.6
		c0,0-4.9,5.7,0.6,11.5c0,0-7,5.3-0.4,14l0.4,33.4l0,0c-0.3,0.1-0.5,0.3-0.7,0.5c-2.2,0.9-1.5,3.4-1.5,3.4v10.8
		c0,0,1.7,12.3,35,14.2c0,0,30.6-0.4,37.2-13.6v-11c0-0.1,0.1-0.2,0.1-0.3c0,0,0-0.1,0-0.1c0-0.1,0-0.1,0.1-0.2c0,0,0-0.1,0-0.1
		c0-0.1,0-0.2,0.1-0.3c0,0,0,0,0-0.1c0-0.2,0.1-0.5,0.1-0.7c0,0,0,0,0-0.1c0-0.1,0-0.2,0-0.3c0,0,0,0,0-0.1c0-0.1,0-0.2-0.1-0.3
		c0,0,0,0,0,0c0-0.1-0.1-0.2-0.1-0.3c0,0,0,0,0,0c0,0,0,0,0,0c-0.1-0.3-0.4-0.5-0.7-0.7c-0.2-0.3-0.6-0.6-1.1-0.8V86.3l-0.3,0
		C110.1,84.8,114.6,79.4,109.2,71.5z"/>
	<path fill="#FFFFFE" d="M67.2,14v8.2c0,0,11.8-1.6,15.2,0.5v-9.1C82.4,13.6,74.8,9.3,67.2,14z"/>
	<path fill="#FFFFFE" d="M65,27.5V24c0,0,0.6-1.6,2.5-2.3c0,0,8.6-2.3,15.1,0.3c0,0,1,0.8,1.4,2.3v3.3C84,27.6,76.9,24.9,65,27.5z"
		/>
	<g>
		<path fill="#FFFFFE" d="M90,34.6c-0.7,0.2-1.3,0.7-1.5,1.5c-0.2,0.8-0.2,1.7-0.1,2.3c0.1,1.5,3.1,0.5,4.9,0.6
			c3.8,0.2,2.9,0.4,6.1,2c0.7,0.3,2.4,1.5,3.1,0.7c1.7-2-3.1-4.1-5.2-5.2c-1.6-0.8-4.2-1.9-7.1-2L90,34.6z"/>
	</g>
	<path fill="#071840" d="M82.4,14.3c0,0,2.2-0.3,0.9-2.9l-0.8-0.5V6.3c0,0,2,0,0.6-2.8c0,0-0.4-0.8-2.4-1.6c-3-1.1-8.5-2.2-14.8,1.4
		c0,0-1.2,2.5,0.7,3.1v4.2h0.6l-1.5,0.9c0,0-1.4,2.7,1.2,3C67,14.5,72.8,12.1,82.4,14.3z"/>
	<polygon fill="#455DB1" points="80.4,3.6 80.4,12.2 81.6,12.8 81.6,3.6 	"/>
</g>
</svg>
