<?xml version="1.0" encoding="utf-8"?>
<!-- Generator: Adobe Illustrator 22.0.1, SVG Export Plug-In . SVG Version: 6.00 Build 0)  -->
<svg version="1.1" id="Layer_1" xmlns="http://www.w3.org/2000/svg" xmlns:xlink="http://www.w3.org/1999/xlink" x="0px" y="0px"
	 width="150px" height="150px" viewBox="0 0 150 150" enable-background="new 0 0 150 150" xml:space="preserve">
<g>
	<path fill="#FFFFFE" d="M110.4,70.8c0,0,3.7-3.3,0.4-11.2c0,0,6-8.1,0-14.9c0,0,1.4-6.4-6.7-9l-19.8-9.4c0,0-9.7-4.2-18.9,0.1
		l-19.9,9.5c0,0-8.6,3.5-5.8,8.8c0,0-7.5,5.6-0.1,14.9c0,0-5,5.8,0.6,11.8c0,0-7.2,5.4-0.4,14.3l0.4,34.2l0,0
		c-0.3,0.2-0.5,0.3-0.7,0.5c-2.3,0.9-1.6,3.5-1.6,3.5v11c0,0,1.7,12.6,35.8,14.5c0,0,31.4-0.4,38.2-13.9v-11.3
		c0-0.1,0.1-0.2,0.1-0.3c0,0,0-0.1,0-0.1c0-0.1,0-0.2,0.1-0.2c0,0,0-0.1,0-0.1c0-0.1,0-0.2,0.1-0.3c0,0,0,0,0-0.1
		c0-0.2,0.1-0.5,0.1-0.7c0,0,0,0,0-0.1c0-0.1,0-0.2,0-0.3c0,0,0,0,0-0.1c0-0.1,0-0.2-0.1-0.3c0,0,0,0,0,0c0-0.1-0.1-0.2-0.1-0.3
		c0,0,0,0,0,0c0,0,0,0,0,0c-0.2-0.3-0.4-0.5-0.7-0.7c-0.2-0.3-0.6-0.6-1.2-0.8V85.9l-0.3,0C111.4,84.5,116.1,78.9,110.4,70.8z"/>
	<path opacity="0.7" fill="#C4D2E8" d="M111,129.7v5.1c0,0.2,0,0.4-0.1,0.6c-6.7,12.5-35.4,13.2-36.7,13.2c0,0-0.1,0-0.1,0
		c-30.7-1.8-34.2-12.4-34.6-13.9c0-0.1,0-0.2,0-0.3v-4.4c0-0.7,0.5-1.2,1.2-1.3c1.7-0.2,2.8,1.3,9.1,3.4c9.3,3.1,14.3,2.8,23.8,1
		c9.5-1.8,19.5,0.2,22.9-1c2.9-1,8-1.1,11.2-2.3c0.8-0.3,3.1-2,3.1-1.2L111,129.7z"/>
	<path fill="#FFFFFE" d="M67.7,13.7v8.2c0,0,11.8-1.6,15.2,0.5v-9.1C82.8,13.3,75.2,9,67.7,13.7z"/>
	<path fill="#FFFFFE" d="M65.5,27.3v-3.5c0,0,0.6-1.6,2.5-2.3c0,0,8.6-2.3,15.1,0.3c0,0,1,0.8,1.4,2.3v3.3
		C84.4,27.4,77.4,24.6,65.5,27.3z"/>
	<g>
		<path fill="#FFFFFE" d="M90.4,33.6c-0.6,0.7-1.2,2.2-1.1,3.1c0.1,1.5,0.6,1.5,2.4,1.9c2.8,0.6,5.7,0.9,8.7,1.3
			c0.7,0.1,2.5,0.7,3.2-0.1c1.7-2-3.9-4.8-5.4-5.3c-1.7-0.6-4.1-1.5-7.1-1.6L90.4,33.6z"/>
	</g>
	<path fill="#071840" d="M82.8,14.1c0,0,2.2-0.3,0.9-2.9l-0.8-0.5V6c0,0,2,0,0.6-2.8c0,0-7.2-5.9-17.2-0.2c0,0-1.2,2.5,0.7,3.1v4.2
		h0.6l-1.5,0.9c0,0-1.4,2.7,1.2,3C67.4,14.2,73.3,11.8,82.8,14.1z"/>
	<polygon fill="#455DB1" points="80.8,3.3 80.8,12 82.1,12.5 82.1,3.3 	"/>
</g>
</svg>
